<?xml version="1.0" encoding="UTF-8"?>
<svg xmlns="http://www.w3.org/2000/svg" xmlns:xlink="http://www.w3.org/1999/xlink" width="50px" height="50px" viewBox="0 0 50 50" version="1.1">
<g id="surface1">
<path style=" stroke:none;fill-rule:evenodd;fill:rgb(10.980392%,15.294118%,29.803922%);fill-opacity:1;" d="M 20.832031 8.332031 L 29.167969 8.332031 C 37.023438 8.332031 40.953125 8.332031 43.390625 10.773438 C 45.832031 13.214844 45.832031 17.144531 45.832031 25 C 45.832031 32.855469 45.832031 36.785156 43.390625 39.226562 C 40.953125 41.667969 37.023438 41.667969 29.167969 41.667969 L 20.832031 41.667969 C 12.976562 41.667969 9.046875 41.667969 6.609375 39.226562 C 4.167969 36.785156 4.167969 32.855469 4.167969 25 C 4.167969 17.144531 4.167969 13.214844 6.609375 10.773438 C 9.046875 8.332031 12.976562 8.332031 20.832031 8.332031 Z M 27.605469 18.75 C 27.605469 17.886719 28.304688 17.1875 29.167969 17.1875 L 39.582031 17.1875 C 40.445312 17.1875 41.144531 17.886719 41.144531 18.75 C 41.144531 19.613281 40.445312 20.3125 39.582031 20.3125 L 29.167969 20.3125 C 28.304688 20.3125 27.605469 19.613281 27.605469 18.75 Z M 29.6875 25 C 29.6875 24.136719 30.386719 23.4375 31.25 23.4375 L 39.582031 23.4375 C 40.445312 23.4375 41.144531 24.136719 41.144531 25 C 41.144531 25.863281 40.445312 26.5625 39.582031 26.5625 L 31.25 26.5625 C 30.386719 26.5625 29.6875 25.863281 29.6875 25 Z M 31.769531 31.25 C 31.769531 30.386719 32.46875 29.6875 33.332031 29.6875 L 39.582031 29.6875 C 40.445312 29.6875 41.144531 30.386719 41.144531 31.25 C 41.144531 32.113281 40.445312 32.8125 39.582031 32.8125 L 33.332031 32.8125 C 32.46875 32.8125 31.769531 32.113281 31.769531 31.25 Z M 22.917969 18.75 C 22.917969 21.050781 21.050781 22.917969 18.75 22.917969 C 16.449219 22.917969 14.582031 21.050781 14.582031 18.75 C 14.582031 16.449219 16.449219 14.582031 18.75 14.582031 C 21.050781 14.582031 22.917969 16.449219 22.917969 18.75 Z M 18.75 35.417969 C 27.082031 35.417969 27.082031 33.550781 27.082031 31.25 C 27.082031 28.949219 23.351562 27.082031 18.75 27.082031 C 14.148438 27.082031 10.417969 28.949219 10.417969 31.25 C 10.417969 33.550781 10.417969 35.417969 18.75 35.417969 Z M 18.75 35.417969 "/>
</g>
</svg>
